<?xml version="1.0" encoding="utf-8"?>
<!-- Generator: Adobe Illustrator 16.0.0, SVG Export Plug-In . SVG Version: 6.00 Build 0)  -->
<!DOCTYPE svg PUBLIC "-//W3C//DTD SVG 1.1//EN" "http://www.w3.org/Graphics/SVG/1.1/DTD/svg11.dtd">
<svg version="1.1" id="Layer_1" xmlns="http://www.w3.org/2000/svg" xmlns:xlink="http://www.w3.org/1999/xlink" x="0px" y="0px"
	 width="123.859px" height="40px" viewBox="0 0 123.859 40" enable-background="new 0 0 123.859 40" xml:space="preserve">
<g>
	<g>
		<path fill="#FFFFFF" d="M13.508,31.749c0.174,0.086,0.363,0.16,0.574,0.23c0.464,0.148,0.892,0.371,1.277,0.666
			c0.54,0.418,0.968,0.963,1.285,1.564c0.302,0.568,1.075,2.238,0.795,2.863c2.233-4.973,0.515-10.086-0.053-11.053
			c-0.57-0.963-4.902-3.967-4.902-3.967l-0.93-0.601l0.529,9.313C12.609,31.179,12.994,31.499,13.508,31.749"/>
		<path fill="#FFFFFF" d="M18.554,31.712l-1.147-1.043c0,0-0.574,1.748-1.624,2.352c0,0,1.631,1.717,1.657,4.053
			C18.936,34.532,18.554,31.712,18.554,31.712"/>
		<path fill="#0785A2" d="M11.608,21.452c0,0-0.126,5.355,3.428,6.527l1.676,1.967c0,0-1.328,0.814-2.037-0.693l-0.279-1.047
			C14.395,28.206,11.26,27.05,11.608,21.452"/>
		<path fill="#FFFFFF" d="M15.078,22.474c-1.661-1.01-8.232-5.388-9.555-12.136c-1.021-4.59,1.339-9.449,1.339-9.449
			c-2.276,10.359,6.831,16.85,8.031,17.656L15.078,22.474z"/>
		<path fill="#FFFFFF" d="M3.622,25.616c1.213,6.861,9.723,17.074,6.817,12.24c-2.901-4.832-0.207-5.949-0.24-6.441
			C9.036,30.813,6.425,28.968,3.622,25.616"/>
		<path fill="#FFFFFF" d="M5.772,0.89c0,0-4.616,7.106,0.131,14.941c0,0,1.559,2.836,4.35,5.021l0.474,9.652
			c0,0-8.796-5.584-9.638-12.549C0.249,10.988,2.517,3.712,5.772,0.89"/>
		<path fill="#0785A2" d="M18.78,31.663l-1.212-1.1c-0.073-0.066-0.262-0.014-0.293,0.078c-0.32,0.904-0.839,1.893-1.662,2.422
			c-0.195,0.125,0.086,0.24,0.221,0.154c0.869-0.559,1.428-1.59,1.766-2.541c-0.097,0.027-0.195,0.053-0.295,0.078
			c0.405,0.369,0.809,0.734,1.213,1.102C18.626,31.954,18.923,31.794,18.78,31.663"/>
	</g>
	<path fill="#FFFFFF" d="M32.129,20.348v5.368c0,1.563-0.49,2.769-1.463,3.605c-0.979,0.84-2.189,1.261-3.634,1.261
		c-1.452,0-2.648-0.419-3.6-1.252c-0.952-0.831-1.427-2.039-1.427-3.614c0,0,0.041-8.042,0-8.221
		c-0.039-0.176,2.127,2.854,2.127,2.854v5.368c0,0.983,0.256,1.722,0.773,2.218c0.514,0.495,1.236,0.744,2.161,0.744
		s1.646-0.249,2.161-0.744c0.517-0.496,0.775-1.234,0.775-2.218v-8.221"/>
	<path fill="#FFFFFF" d="M37.011,20.178v1.623c0.682-1.19,1.776-1.79,3.281-1.79c1.155,0,2.109,0.387,2.858,1.157
		c0.754,0.771,1.129,1.843,1.129,3.225v6.057h-2.107v-5.741c0-0.919-0.229-1.624-0.688-2.114c-0.461-0.491-1.09-0.735-1.884-0.735
		c-0.795,0-1.426,0.244-1.893,0.735c-0.465,0.49-0.697,1.195-0.697,2.114v5.741h-2.124V20.178H37.011z"/>
	<path fill="#FFFFFF" d="M56.823,19.523v10.926h-2.144v-1.917c-0.347,0.632-0.825,1.138-1.433,1.517
		c-0.61,0.382-1.319,0.569-2.127,0.569c-1.366,0-2.516-0.5-3.449-1.501c-0.931-1.001-1.396-2.281-1.396-3.839
		c0-1.559,0.463-2.828,1.388-3.804c0.927-0.975,2.08-1.463,3.458-1.463c0.808,0,1.519,0.182,2.134,0.553
		c0.617,0.365,1.093,0.844,1.426,1.443v-5.348 M53.758,27.83c0.614-0.626,0.921-1.469,0.921-2.521c0-1.059-0.307-1.899-0.921-2.519
		c-0.617-0.625-1.346-0.933-2.191-0.933s-1.572,0.303-2.188,0.912c-0.616,0.609-0.926,1.44-0.926,2.499
		c0,1.055,0.31,1.902,0.926,2.544c0.615,0.641,1.342,0.958,2.188,0.958S53.141,28.459,53.758,27.83"/>
	<path fill="#FFFFFF" d="M63.944,30.618c-1.49,0-2.703-0.485-3.635-1.454c-0.933-0.969-1.398-2.255-1.398-3.854
		c0-1.607,0.472-2.891,1.419-3.854c0.943-0.962,2.162-1.445,3.661-1.445c1.495,0,2.712,0.466,3.645,1.389
		c0.93,0.929,1.396,2.134,1.396,3.627c0,0.359-0.025,0.694-0.075,1.007H61.09c0.051,0.855,0.34,1.535,0.867,2.04
		c0.529,0.503,1.191,0.752,1.986,0.752c1.155,0,1.967-0.477,2.442-1.435h2.293c-0.313,0.947-0.877,1.719-1.698,2.322
		C66.161,30.315,65.147,30.618,63.944,30.618 M65.974,22.557c-0.546-0.505-1.211-0.758-1.994-0.758
		c-0.782,0-1.436,0.253-1.966,0.758c-0.528,0.504-0.83,1.177-0.904,2.021h5.703C66.801,23.733,66.522,23.061,65.974,22.557"/>
	<path fill="#FFFFFF" d="M73.244,20.178v1.792c0.657-1.302,1.686-1.958,3.077-1.958v2.201H75.78c-0.833,0-1.463,0.21-1.895,0.634
		c-0.428,0.422-0.642,1.157-0.642,2.198v5.405H71.12V20.178H73.244z"/>
	<path fill="#FFFFFF" d="M77.812,23.127c0-0.87,0.362-1.609,1.097-2.209c0.735-0.604,1.695-0.906,2.891-0.906
		c1.192,0,2.139,0.297,2.84,0.886c0.704,0.59,1.08,1.394,1.13,2.413h-2.181c-0.038-0.509-0.214-0.904-0.534-1.19
		c-0.313-0.286-0.758-0.429-1.33-0.429s-1.019,0.128-1.339,0.381c-0.327,0.255-0.489,0.59-0.489,1.008
		c0,0.415,0.206,0.741,0.616,0.978c0.413,0.235,0.912,0.409,1.502,0.521c0.588,0.11,1.179,0.247,1.767,0.41
		c0.591,0.162,1.093,0.455,1.504,0.884c0.408,0.431,0.614,1.004,0.614,1.726c0,0.896-0.376,1.623-1.127,2.182
		c-0.754,0.559-1.719,0.839-2.9,0.839c-1.179,0-2.134-0.286-2.868-0.856c-0.733-0.573-1.137-1.387-1.212-2.443h2.201
		c0.035,0.509,0.221,0.908,0.558,1.195c0.335,0.285,0.791,0.426,1.37,0.426c0.577,0,1.038-0.127,1.379-0.383
		c0.34-0.254,0.513-0.592,0.513-1.016c0-0.422-0.203-0.75-0.614-0.984c-0.412-0.239-0.909-0.416-1.501-0.535
		c-0.592-0.115-1.181-0.253-1.771-0.409c-0.589-0.154-1.09-0.436-1.499-0.846C78.014,24.354,77.812,23.807,77.812,23.127"/>
	<path fill="#FFFFFF" d="M90.653,17.461c0,0.385-0.133,0.705-0.389,0.966c-0.265,0.261-0.585,0.391-0.963,0.391
		c-0.382,0-0.699-0.13-0.96-0.391c-0.26-0.261-0.391-0.581-0.391-0.966c0-0.388,0.131-0.71,0.391-0.973
		c0.261-0.26,0.578-0.393,0.96-0.393c0.378,0,0.698,0.133,0.963,0.393C90.52,16.751,90.653,17.074,90.653,17.461 M88.229,20.178
		h2.125v10.271h-2.125V20.178z"/>
	<path fill="#FFFFFF" d="M93.839,29.117c-0.932-1.001-1.398-2.281-1.398-3.839c0-1.559,0.465-2.828,1.388-3.804
		c0.926-0.975,2.078-1.463,3.459-1.463c0.807,0,1.518,0.182,2.134,0.553c0.615,0.365,1.091,0.844,1.426,1.443v-1.829h2.144v10.44
		c0,1.438-0.443,2.617-1.335,3.53c-0.886,0.914-2.069,1.373-3.548,1.373s-2.675-0.326-3.6-0.98
		c-0.917-0.652-1.439-1.539-1.565-2.656h2.107c0.163,0.533,0.506,0.965,1.037,1.297c0.525,0.326,1.188,0.494,1.982,0.494
		c0.796,0,1.457-0.263,1.985-0.783c0.53-0.521,0.792-1.283,0.792-2.274v-2.086c-0.35,0.632-0.825,1.138-1.433,1.517
		c-0.611,0.382-1.32,0.569-2.127,0.569C95.919,30.618,94.773,30.118,93.839,29.117 M99.925,27.83
		c0.614-0.626,0.922-1.469,0.922-2.521c0-1.059-0.308-1.899-0.922-2.519c-0.614-0.625-1.345-0.933-2.192-0.933
		c-0.842,0-1.572,0.303-2.188,0.912c-0.615,0.609-0.923,1.44-0.923,2.499c0,1.055,0.308,1.902,0.923,2.544
		c0.616,0.641,1.347,0.958,2.188,0.958C98.581,28.771,99.311,28.459,99.925,27.83"/>
	<path fill="#FFFFFF" d="M107.911,19.516v2.285c0.685-1.192,1.776-1.79,3.281-1.79c1.154,0,2.11,0.387,2.859,1.157
		c0.751,0.771,1.129,1.843,1.129,3.225v6.057h-2.105v-5.741c0-0.919-0.231-1.624-0.689-2.114c-0.46-0.491-1.087-0.735-1.882-0.735
		c-0.798,0-1.429,0.244-1.892,0.735c-0.469,0.49-0.701,1.195-0.701,2.114v5.741h-2.123V16.659"/>
	<path fill="#FFFFFF" d="M122.859,21.911h-2.496v5.687c0,0.384,0.089,0.662,0.269,0.828c0.18,0.171,0.49,0.252,0.922,0.252h1.306
		v1.771h-1.677c-1.974,0-2.964-0.951-2.964-2.852v-5.687h-1.212v-1.733h1.212v-2.552h2.145v2.552h2.496V21.911z"/>
</g>
</svg>
