<?xml version="1.0" encoding="utf-8"?>
<!-- Generator: Adobe Illustrator 16.0.0, SVG Export Plug-In . SVG Version: 6.00 Build 0)  -->
<!DOCTYPE svg PUBLIC "-//W3C//DTD SVG 1.1//EN" "http://www.w3.org/Graphics/SVG/1.1/DTD/svg11.dtd">
<svg version="1.1" id="Layer_1" xmlns="http://www.w3.org/2000/svg" xmlns:xlink="http://www.w3.org/1999/xlink" x="0px" y="0px"
	 width="40px" height="40px" viewBox="0 0 40 40" enable-background="new 0 0 40 40" xml:space="preserve">
<g>
	<path fill="#FFFFFF" d="M23.787,32.082c0.181,0.088,0.377,0.166,0.597,0.237c0.481,0.156,0.928,0.386,1.327,0.694
		c0.563,0.434,1.007,1.001,1.337,1.626c0.313,0.59,1.118,2.327,0.826,2.976c2.322-5.167,0.535-10.483-0.057-11.488
		c-0.592-1.003-5.094-4.125-5.094-4.125l-0.967-0.624l0.55,9.683C22.852,31.488,23.252,31.822,23.787,32.082"/>
	<path fill="#FFFFFF" d="M29.032,32.043l-1.193-1.084c0,0-0.596,1.815-1.688,2.444c0,0,1.695,1.784,1.723,4.212
		C29.428,34.977,29.032,32.043,29.032,32.043"/>
	<path fill="#0785A2" d="M21.811,21.377c0,0-0.13,5.566,3.564,6.785l1.741,2.046c0,0-1.38,0.847-2.117-0.722l-0.292-1.087
		C24.707,28.399,21.448,27.196,21.811,21.377"/>
	<path fill="#FFFFFF" d="M25.417,22.439c-1.726-1.051-8.557-5.604-9.932-12.617C14.425,5.052,16.877,0,16.877,0
		c-2.365,10.767,7.102,17.516,8.351,18.354L25.417,22.439z"/>
	<path fill="#FFFFFF" d="M13.509,25.706c1.261,7.134,10.106,17.75,7.089,12.725c-3.018-5.023-0.217-6.186-0.253-6.695
		C19.138,31.107,16.424,29.189,13.509,25.706"/>
	<path fill="#FFFFFF" d="M15.744,0.001c0,0-4.798,7.388,0.137,15.532c0,0,1.619,2.949,4.521,5.221l0.492,10.033
		c0,0-9.142-5.805-10.017-13.046C10.002,10.499,12.361,2.935,15.744,0.001"/>
	<path fill="#0785A2" d="M29.267,31.991l-1.26-1.144c-0.076-0.069-0.271-0.014-0.305,0.082c-0.332,0.94-0.872,1.969-1.729,2.52
		c-0.201,0.129,0.09,0.249,0.231,0.158c0.901-0.58,1.484-1.651,1.834-2.64c-0.102,0.026-0.203,0.054-0.306,0.081
		c0.421,0.381,0.841,0.763,1.261,1.145C29.107,32.296,29.416,32.127,29.267,31.991"/>
</g>
</svg>
